<svg width="38" height="38" viewBox="0 0 38 38" fill="none" xmlns="http://www.w3.org/2000/svg">
<g clip-path="url(#clip0_1_494)">
<path d="M28.5 9.50033H25.3333C25.3333 6.00116 22.4992 3.16699 19 3.16699C15.5008 3.16699 12.6667 6.00116 12.6667 9.50033H9.49999C7.75833 9.50033 6.33333 10.9253 6.33333 12.667V31.667C6.33333 33.4087 7.75833 34.8337 9.49999 34.8337H28.5C30.2417 34.8337 31.6667 33.4087 31.6667 31.667V12.667C31.6667 10.9253 30.2417 9.50033 28.5 9.50033ZM19 6.33366C20.7417 6.33366 22.1667 7.75866 22.1667 9.50033H15.8333C15.8333 7.75866 17.2583 6.33366 19 6.33366ZM28.5 31.667H9.49999V12.667H12.6667V15.8337C12.6667 16.7045 13.3792 17.417 14.25 17.417C15.1208 17.417 15.8333 16.7045 15.8333 15.8337V12.667H22.1667V15.8337C22.1667 16.7045 22.8792 17.417 23.75 17.417C24.6208 17.417 25.3333 16.7045 25.3333 15.8337V12.667H28.5V31.667Z" fill="#002F52"/>
</g>
<defs>
<clipPath id="clip0_1_494">
<rect width="38" height="38" fill="white"/>
</clipPath>
</defs>
</svg>
